G75*
G70*
%OFA0B0*%
%FSLAX24Y24*%
%IPPOS*%
%LPD*%
%AMOC8*
5,1,8,0,0,1.08239X$1,22.5*
%
%ADD10C,0.0709*%
%ADD11C,0.0554*%
%ADD12C,0.0600*%
%ADD13OC8,0.0600*%
%ADD14R,0.0600X0.0600*%
%ADD15C,0.0240*%
%ADD16C,0.0320*%
%ADD17C,0.0436*%
%ADD18C,0.0500*%
%ADD19C,0.0100*%
%ADD20C,0.0120*%
D10*
X025939Y002383D03*
X025939Y003760D03*
X026139Y012783D03*
X026139Y014160D03*
X026139Y016783D03*
X026139Y018160D03*
D11*
X006939Y018471D03*
X005939Y017971D03*
X006939Y017471D03*
X005939Y016971D03*
X005939Y018971D03*
X006939Y019471D03*
X006939Y013471D03*
X005939Y012971D03*
X006939Y012471D03*
X005939Y011971D03*
X006939Y011471D03*
X005939Y010971D03*
D12*
X008139Y011371D03*
X008139Y012371D03*
X008139Y013371D03*
X008139Y014371D03*
X008139Y010371D03*
X008139Y009371D03*
X003389Y003471D03*
X003389Y002471D03*
X009089Y001371D03*
X010089Y001371D03*
X011089Y001371D03*
X014989Y001371D03*
X015989Y001371D03*
X025239Y006071D03*
D13*
X025239Y008071D03*
X006989Y002371D03*
X005989Y002371D03*
X004989Y002371D03*
X004989Y001371D03*
X005989Y001371D03*
X006989Y001371D03*
D14*
X008089Y001371D03*
D15*
X002959Y000941D02*
X002959Y002166D01*
X003094Y002031D01*
X003286Y001951D01*
X003492Y001951D01*
X003684Y002031D01*
X003830Y002177D01*
X003909Y002368D01*
X003909Y002575D01*
X003899Y002599D01*
X004284Y002985D01*
X004317Y002906D01*
X004424Y002799D01*
X004563Y002741D01*
X004624Y002741D01*
X004469Y002587D01*
X004469Y002156D01*
X004754Y001871D01*
X004469Y001587D01*
X004469Y001372D01*
X004989Y001372D01*
X004989Y001371D01*
X004469Y001371D01*
X004469Y001156D01*
X004684Y000941D01*
X002959Y000941D01*
X002959Y000994D02*
X004631Y000994D01*
X004469Y001233D02*
X002959Y001233D01*
X002959Y001471D02*
X004469Y001471D01*
X004592Y001710D02*
X002959Y001710D01*
X002959Y001949D02*
X004677Y001949D01*
X004469Y002187D02*
X003834Y002187D01*
X003909Y002426D02*
X004469Y002426D01*
X004546Y002664D02*
X003964Y002664D01*
X004202Y002903D02*
X004320Y002903D01*
X004841Y003541D02*
X005101Y003801D01*
X005422Y003801D01*
X005474Y003749D01*
X005613Y003691D01*
X005765Y003691D01*
X005904Y003749D01*
X006011Y003856D01*
X006069Y003996D01*
X006069Y004147D01*
X006011Y004287D01*
X005996Y004301D01*
X007527Y004301D01*
X008409Y003420D01*
X008409Y003401D01*
X008391Y003401D01*
X007968Y003824D01*
X007892Y003900D01*
X007793Y003941D01*
X007393Y003941D01*
X007285Y003941D01*
X007189Y003901D01*
X007113Y003901D01*
X006974Y003844D01*
X006867Y003737D01*
X006809Y003597D01*
X006809Y003446D01*
X006867Y003306D01*
X006974Y003199D01*
X007113Y003141D01*
X007232Y003141D01*
X006851Y003141D01*
X006836Y003380D02*
X006612Y003380D01*
X006568Y003424D02*
X006492Y003500D01*
X006393Y003541D01*
X004843Y003541D01*
X004841Y003541D01*
X004918Y003618D02*
X006818Y003618D01*
X007006Y003857D02*
X006011Y003857D01*
X006069Y004095D02*
X007733Y004095D01*
X007935Y003857D02*
X007972Y003857D01*
X008174Y003618D02*
X008210Y003618D01*
X008819Y003041D02*
X008865Y003041D01*
X009004Y003099D01*
X009111Y003206D01*
X009169Y003346D01*
X009169Y003410D01*
X009259Y003320D01*
X009259Y003246D01*
X009317Y003106D01*
X009424Y002999D01*
X009563Y002941D01*
X009715Y002941D01*
X009854Y002999D01*
X009961Y003106D01*
X010019Y003246D01*
X010019Y003385D01*
X010054Y003399D01*
X010161Y003506D01*
X010219Y003646D01*
X011200Y002664D01*
X011184Y002664D01*
X011192Y002656D02*
X011104Y002744D01*
X010965Y002801D01*
X010813Y002801D01*
X010674Y002744D01*
X010567Y002637D01*
X010509Y002497D01*
X010509Y002483D01*
X010468Y002524D01*
X010392Y002600D01*
X010293Y002641D01*
X008601Y002641D01*
X008576Y002667D01*
X008654Y002699D01*
X008761Y002806D01*
X008819Y002946D01*
X008819Y003041D01*
X008801Y002903D02*
X010962Y002903D01*
X011200Y002664D02*
X011192Y002656D01*
X011518Y002219D02*
X011691Y002391D01*
X014982Y002391D01*
X015024Y002349D01*
X015163Y002291D01*
X015315Y002291D01*
X015454Y002349D01*
X015561Y002456D01*
X015619Y002596D01*
X015619Y002747D01*
X015561Y002887D01*
X015454Y002994D01*
X015315Y003051D01*
X015163Y003051D01*
X015024Y002994D01*
X014982Y002951D01*
X011705Y002951D01*
X009269Y005387D01*
X009269Y005447D01*
X009211Y005587D01*
X009104Y005694D01*
X008965Y005751D01*
X008813Y005751D01*
X008674Y005694D01*
X008567Y005587D01*
X008509Y005447D01*
X008509Y005296D01*
X008532Y005241D01*
X005851Y005241D01*
X005469Y005623D01*
X005469Y005697D01*
X005411Y005837D01*
X005304Y005944D01*
X005165Y006001D01*
X005013Y006001D01*
X004874Y005944D01*
X004767Y005837D01*
X004711Y005701D01*
X004563Y005701D01*
X004456Y005657D01*
X006051Y007251D01*
X006422Y007251D01*
X006474Y007199D01*
X006613Y007141D01*
X006765Y007141D01*
X006904Y007199D01*
X007011Y007306D01*
X007069Y007446D01*
X007069Y007597D01*
X007011Y007737D01*
X006974Y007774D01*
X007191Y007991D01*
X007265Y007991D01*
X007404Y008049D01*
X007511Y008156D01*
X007549Y008249D01*
X007567Y008206D01*
X007674Y008099D01*
X007813Y008041D01*
X007965Y008041D01*
X008104Y008099D01*
X008211Y008206D01*
X008251Y008301D01*
X013793Y008301D01*
X013892Y008343D01*
X013968Y008419D01*
X016618Y011069D01*
X016659Y011168D01*
X016659Y011275D01*
X016659Y012354D01*
X016711Y012406D01*
X016769Y012546D01*
X016769Y012697D01*
X016711Y012837D01*
X016604Y012944D01*
X016465Y013001D01*
X016313Y013001D01*
X016174Y012944D01*
X016067Y012837D01*
X016009Y012697D01*
X016009Y012546D01*
X016067Y012406D01*
X016119Y012354D01*
X016119Y011333D01*
X013627Y008841D01*
X012459Y008841D01*
X012477Y008884D01*
X012477Y009059D01*
X012410Y009219D01*
X012287Y009343D01*
X012126Y009409D01*
X012082Y009409D01*
X011529Y009962D01*
X011529Y014042D01*
X011560Y014074D01*
X011627Y014234D01*
X011627Y014409D01*
X011560Y014569D01*
X011437Y014693D01*
X011276Y014759D01*
X011102Y014759D01*
X010941Y014693D01*
X010818Y014569D01*
X010751Y014409D01*
X010751Y014234D01*
X010818Y014074D01*
X010849Y014042D01*
X010849Y009889D01*
X010849Y009754D01*
X010901Y009629D01*
X011601Y008928D01*
X011601Y008884D01*
X011619Y008841D01*
X010346Y008841D01*
X010411Y008906D01*
X010469Y009046D01*
X010469Y009197D01*
X010411Y009337D01*
X010304Y009444D01*
X010165Y009501D01*
X010091Y009501D01*
X009142Y010450D01*
X009163Y010441D01*
X009315Y010441D01*
X009454Y010499D01*
X009561Y010606D01*
X009619Y010746D01*
X009619Y010897D01*
X009583Y010984D01*
X009992Y011393D01*
X010068Y011469D01*
X010109Y011568D01*
X010109Y014310D01*
X010141Y014341D01*
X010215Y014341D01*
X010354Y014399D01*
X010461Y014506D01*
X010519Y014646D01*
X010519Y014797D01*
X010461Y014937D01*
X010354Y015044D01*
X010215Y015101D01*
X010063Y015101D01*
X009924Y015044D01*
X009817Y014937D01*
X009759Y014797D01*
X009759Y014723D01*
X009610Y014574D01*
X009569Y014475D01*
X009569Y014368D01*
X009569Y011733D01*
X009409Y011573D01*
X009409Y014575D01*
X009368Y014674D01*
X009292Y014750D01*
X008598Y015445D01*
X008619Y015496D01*
X008619Y015647D01*
X008561Y015787D01*
X008454Y015894D01*
X008315Y015951D01*
X008163Y015951D01*
X008024Y015894D01*
X007917Y015787D01*
X007859Y015647D01*
X007859Y015496D01*
X007917Y015356D01*
X008024Y015249D01*
X008033Y015245D01*
X008869Y014410D01*
X008869Y014123D01*
X008659Y014333D01*
X008659Y014475D01*
X008580Y014666D01*
X008434Y014812D01*
X008242Y014891D01*
X008036Y014891D01*
X007844Y014812D01*
X007809Y014777D01*
X007809Y015710D01*
X009951Y017851D01*
X013022Y017851D01*
X013074Y017799D01*
X013213Y017741D01*
X013365Y017741D01*
X013504Y017799D01*
X013611Y017906D01*
X013669Y018046D01*
X013669Y018197D01*
X013611Y018337D01*
X013504Y018444D01*
X013365Y018501D01*
X013213Y018501D01*
X013074Y018444D01*
X013022Y018391D01*
X009893Y018391D01*
X009785Y018391D01*
X009686Y018350D01*
X007386Y016050D01*
X007310Y015974D01*
X007269Y015875D01*
X007269Y013845D01*
X007221Y013893D01*
X007038Y013969D01*
X006840Y013969D01*
X006657Y013893D01*
X006518Y013753D01*
X006442Y013570D01*
X006442Y013373D01*
X006518Y013190D01*
X006657Y013050D01*
X006840Y012974D01*
X007038Y012974D01*
X007221Y013050D01*
X007269Y013098D01*
X007269Y012845D01*
X007221Y012893D01*
X007038Y012969D01*
X006840Y012969D01*
X006657Y012893D01*
X006518Y012753D01*
X006492Y012691D01*
X006361Y012691D01*
X006436Y012873D01*
X006436Y013070D01*
X006361Y013253D01*
X006221Y013393D01*
X006209Y013398D01*
X006209Y015410D01*
X007042Y016243D01*
X007118Y016319D01*
X007159Y016418D01*
X007159Y017024D01*
X007221Y017050D01*
X007361Y017190D01*
X007436Y017373D01*
X007436Y017570D01*
X007361Y017753D01*
X007221Y017893D01*
X007038Y017969D01*
X006840Y017969D01*
X006759Y017935D01*
X006759Y018008D01*
X006840Y017974D01*
X007038Y017974D01*
X007221Y018050D01*
X007361Y018190D01*
X007436Y018373D01*
X007436Y018570D01*
X007361Y018753D01*
X007221Y018893D01*
X007038Y018969D01*
X006840Y018969D01*
X006802Y018953D01*
X006829Y018979D01*
X006840Y018974D01*
X007038Y018974D01*
X007221Y019050D01*
X007361Y019190D01*
X007436Y019373D01*
X007436Y019570D01*
X007361Y019753D01*
X007221Y019893D01*
X007038Y019969D01*
X006840Y019969D01*
X006657Y019893D01*
X006518Y019753D01*
X006442Y019570D01*
X006442Y019373D01*
X006447Y019361D01*
X006350Y019264D01*
X006221Y019393D01*
X006038Y019469D01*
X005840Y019469D01*
X005657Y019393D01*
X005518Y019253D01*
X005442Y019070D01*
X005442Y018873D01*
X005518Y018690D01*
X005657Y018550D01*
X005840Y018474D01*
X006038Y018474D01*
X006219Y018549D01*
X006219Y018394D01*
X006038Y018469D01*
X005840Y018469D01*
X005657Y018393D01*
X005518Y018253D01*
X005442Y018070D01*
X005442Y017873D01*
X005518Y017690D01*
X005657Y017550D01*
X005840Y017474D01*
X005910Y017474D01*
X005904Y017469D01*
X005840Y017469D01*
X005657Y017393D01*
X005518Y017253D01*
X005442Y017070D01*
X005442Y016873D01*
X005518Y016690D01*
X005657Y016550D01*
X005840Y016474D01*
X006038Y016474D01*
X006221Y016550D01*
X006361Y016690D01*
X006436Y016873D01*
X006436Y017070D01*
X006387Y017188D01*
X006480Y017281D01*
X006518Y017190D01*
X006619Y017088D01*
X006619Y016583D01*
X005710Y015674D01*
X005669Y015575D01*
X005669Y015468D01*
X005669Y014179D01*
X005615Y014201D01*
X005463Y014201D01*
X005324Y014144D01*
X005217Y014037D01*
X005159Y013897D01*
X005159Y013823D01*
X003910Y012574D01*
X003869Y012475D01*
X003869Y012368D01*
X003869Y011968D01*
X003910Y011869D01*
X003986Y011793D01*
X004960Y010819D01*
X004960Y010819D01*
X005036Y010743D01*
X005135Y010701D01*
X005513Y010701D01*
X005518Y010690D01*
X005657Y010550D01*
X005840Y010474D01*
X006038Y010474D01*
X006221Y010550D01*
X006361Y010690D01*
X006436Y010873D01*
X006436Y011070D01*
X006361Y011253D01*
X006221Y011393D01*
X006038Y011469D01*
X005840Y011469D01*
X005657Y011393D01*
X005518Y011253D01*
X005513Y011241D01*
X005301Y011241D01*
X004409Y012133D01*
X004409Y012310D01*
X004559Y012460D01*
X004559Y012346D01*
X004617Y012206D01*
X004409Y012206D01*
X004617Y012206D02*
X004724Y012099D01*
X004863Y012041D01*
X005015Y012041D01*
X005154Y012099D01*
X005206Y012151D01*
X005476Y012151D01*
X005442Y012070D01*
X005442Y011873D01*
X005518Y011690D01*
X005657Y011550D01*
X005840Y011474D01*
X006038Y011474D01*
X006221Y011550D01*
X006361Y011690D01*
X006436Y011873D01*
X006436Y012070D01*
X006403Y012151D01*
X006556Y012151D01*
X006657Y012050D01*
X006840Y011974D01*
X007038Y011974D01*
X007221Y012050D01*
X007269Y012098D01*
X007269Y012025D01*
X007269Y011918D01*
X007310Y011819D01*
X007629Y011499D01*
X007619Y011475D01*
X007619Y011268D01*
X007698Y011077D01*
X007844Y010931D01*
X007987Y010871D01*
X007844Y010812D01*
X007698Y010666D01*
X007619Y010475D01*
X007619Y010472D01*
X007618Y010474D01*
X007569Y010523D01*
X007569Y010597D01*
X007511Y010737D01*
X007404Y010844D01*
X007265Y010901D01*
X007113Y010901D01*
X006974Y010844D01*
X006867Y010737D01*
X006809Y010597D01*
X006809Y010446D01*
X006867Y010306D01*
X006974Y010199D01*
X007113Y010141D01*
X007119Y010141D01*
X007119Y009018D01*
X007160Y008919D01*
X007236Y008843D01*
X007372Y008707D01*
X007265Y008751D01*
X007113Y008751D01*
X007038Y008720D01*
X007069Y008796D01*
X007069Y008947D01*
X007011Y009087D01*
X006904Y009194D01*
X006765Y009251D01*
X006613Y009251D01*
X006474Y009194D01*
X006367Y009087D01*
X006309Y008947D01*
X006309Y008873D01*
X005027Y007591D01*
X004306Y007591D01*
X004254Y007644D01*
X004115Y007701D01*
X003963Y007701D01*
X003824Y007644D01*
X003717Y007537D01*
X003659Y007397D01*
X003659Y007246D01*
X003717Y007106D01*
X003824Y006999D01*
X003963Y006941D01*
X004115Y006941D01*
X004254Y006999D01*
X004306Y007051D01*
X004787Y007051D01*
X003619Y005883D01*
X003524Y005844D01*
X003417Y005737D01*
X003359Y005597D01*
X003359Y005446D01*
X003417Y005306D01*
X003524Y005199D01*
X003663Y005141D01*
X003698Y005141D01*
X003659Y005047D01*
X003659Y004896D01*
X003717Y004756D01*
X003824Y004649D01*
X003963Y004591D01*
X004115Y004591D01*
X004254Y004649D01*
X004361Y004756D01*
X004399Y004847D01*
X004410Y004819D01*
X004567Y004662D01*
X004524Y004644D01*
X004417Y004537D01*
X004359Y004397D01*
X004359Y004323D01*
X003816Y003780D01*
X003684Y003912D01*
X003492Y003991D01*
X003286Y003991D01*
X003094Y003912D01*
X002959Y003777D01*
X002959Y009169D01*
X002995Y009148D01*
X003288Y009070D01*
X003590Y009070D01*
X003883Y009148D01*
X004145Y009299D01*
X004359Y009513D01*
X004511Y009776D01*
X004589Y010068D01*
X004589Y010371D01*
X004511Y010663D01*
X004359Y010926D01*
X004145Y011140D01*
X003883Y011291D01*
X003590Y011369D01*
X003288Y011369D01*
X002995Y011291D01*
X002959Y011270D01*
X002959Y013173D01*
X002995Y013152D01*
X003288Y013074D01*
X003590Y013074D01*
X003883Y013152D01*
X004145Y013303D01*
X004359Y013517D01*
X004511Y013780D01*
X004589Y014072D01*
X004589Y014375D01*
X004511Y014667D01*
X004359Y014930D01*
X004145Y015144D01*
X004010Y015221D01*
X004145Y015299D01*
X004359Y015513D01*
X004511Y015776D01*
X004589Y016068D01*
X004589Y016371D01*
X004511Y016663D01*
X004359Y016926D01*
X004145Y017140D01*
X003883Y017291D01*
X003590Y017369D01*
X003288Y017369D01*
X002995Y017291D01*
X002959Y017270D01*
X002959Y019173D01*
X002995Y019152D01*
X003288Y019074D01*
X003590Y019074D01*
X003883Y019152D01*
X004145Y019303D01*
X004359Y019517D01*
X004511Y019780D01*
X004589Y020072D01*
X004589Y020375D01*
X004511Y020667D01*
X004359Y020930D01*
X004337Y020951D01*
X010738Y020951D01*
X010595Y020704D01*
X010519Y020419D01*
X010519Y020124D01*
X010595Y019839D01*
X010743Y019584D01*
X010951Y019375D01*
X011207Y019228D01*
X011492Y019151D01*
X011786Y019151D01*
X012071Y019228D01*
X012327Y019375D01*
X012535Y019584D01*
X012683Y019839D01*
X012759Y020124D01*
X012759Y020419D01*
X012683Y020704D01*
X012540Y020951D01*
X013343Y020951D01*
X013324Y020944D01*
X013217Y020837D01*
X013159Y020697D01*
X013159Y020546D01*
X013217Y020406D01*
X013324Y020299D01*
X013463Y020241D01*
X013615Y020241D01*
X013711Y020281D01*
X023498Y020281D01*
X023627Y020153D01*
X023667Y020056D01*
X023774Y019949D01*
X023913Y019891D01*
X024065Y019891D01*
X024204Y019949D01*
X024311Y020056D01*
X024369Y020196D01*
X024369Y020347D01*
X024311Y020487D01*
X024204Y020594D01*
X024108Y020634D01*
X023832Y020910D01*
X023731Y020951D01*
X026919Y020951D01*
X026919Y010975D01*
X026827Y011068D01*
X026571Y011215D01*
X026286Y011291D01*
X025992Y011291D01*
X025707Y011215D01*
X025451Y011068D01*
X025243Y010859D01*
X025095Y010604D01*
X025019Y010319D01*
X025019Y010024D01*
X025095Y009739D01*
X025243Y009484D01*
X025451Y009275D01*
X025707Y009128D01*
X025992Y009051D01*
X026286Y009051D01*
X026571Y009128D01*
X026827Y009275D01*
X026919Y009368D01*
X026919Y000941D01*
X016282Y000941D01*
X016328Y000975D01*
X016386Y001033D01*
X016434Y001099D01*
X016471Y001172D01*
X016496Y001250D01*
X016509Y001331D01*
X016509Y001371D01*
X015989Y001371D01*
X015509Y001371D01*
X014989Y001371D01*
X014469Y001371D01*
X014469Y001331D01*
X014482Y001250D01*
X014507Y001172D01*
X014544Y001099D01*
X014592Y001033D01*
X014650Y000975D01*
X014696Y000941D01*
X011394Y000941D01*
X011530Y001077D01*
X011609Y001268D01*
X011609Y001475D01*
X011530Y001666D01*
X011384Y001812D01*
X011192Y001891D01*
X011101Y001891D01*
X010951Y002041D01*
X010965Y002041D01*
X011104Y002099D01*
X011106Y002101D01*
X011343Y002101D01*
X011442Y002143D01*
X011518Y002219D01*
X011486Y002187D02*
X025399Y002187D01*
X025407Y002162D02*
X025448Y002081D01*
X025501Y002008D01*
X025565Y001944D01*
X025638Y001891D01*
X025719Y001850D01*
X025805Y001822D01*
X025894Y001808D01*
X025939Y001808D01*
X025984Y001808D01*
X026074Y001822D01*
X026159Y001850D01*
X026240Y001891D01*
X026313Y001944D01*
X026377Y002008D01*
X026430Y002081D01*
X026471Y002162D01*
X026499Y002248D01*
X026513Y002337D01*
X026513Y002382D01*
X025939Y002382D01*
X025939Y001808D01*
X025939Y002382D01*
X025939Y002382D01*
X025365Y002382D01*
X025365Y002337D01*
X025379Y002248D01*
X025407Y002162D01*
X025365Y002383D02*
X025939Y002383D01*
X025939Y002957D01*
X025894Y002957D01*
X025805Y002943D01*
X025719Y002915D01*
X025638Y002874D01*
X025565Y002821D01*
X025501Y002757D01*
X025448Y002684D01*
X025407Y002603D01*
X025379Y002517D01*
X025365Y002428D01*
X025365Y002383D01*
X025365Y002426D02*
X015531Y002426D01*
X015619Y002664D02*
X025438Y002664D01*
X025695Y002903D02*
X015545Y002903D01*
X015867Y001879D02*
X015789Y001853D01*
X015716Y001816D01*
X015650Y001768D01*
X015592Y001710D01*
X015386Y001710D01*
X015328Y001768D01*
X015262Y001816D01*
X015189Y001853D01*
X015111Y001879D01*
X015030Y001891D01*
X014989Y001891D01*
X014948Y001891D01*
X014867Y001879D01*
X014789Y001853D01*
X014716Y001816D01*
X014650Y001768D01*
X014592Y001710D01*
X011486Y001710D01*
X011609Y001471D02*
X014478Y001471D01*
X014482Y001493D02*
X014469Y001412D01*
X014469Y001372D01*
X014989Y001372D01*
X014989Y001891D01*
X014989Y001372D01*
X014989Y001372D01*
X014989Y001371D01*
X014989Y001372D01*
X015509Y001372D01*
X015989Y001372D01*
X015989Y001891D01*
X015948Y001891D01*
X015867Y001879D01*
X015989Y001891D02*
X015989Y001372D01*
X015989Y001372D01*
X015989Y001371D01*
X015989Y001372D01*
X016509Y001372D01*
X016509Y001412D01*
X016496Y001493D01*
X016471Y001571D01*
X016434Y001644D01*
X016386Y001710D01*
X026919Y001710D01*
X026919Y001471D02*
X016500Y001471D01*
X016491Y001233D02*
X026919Y001233D01*
X026919Y000994D02*
X016347Y000994D01*
X015989Y001471D02*
X015989Y001471D01*
X015989Y001710D02*
X015989Y001710D01*
X015989Y001891D02*
X016030Y001891D01*
X016111Y001879D01*
X016189Y001853D01*
X016262Y001816D01*
X016328Y001768D01*
X016386Y001710D01*
X015592Y001710D02*
X015544Y001644D01*
X015507Y001571D01*
X015489Y001515D01*
X015471Y001571D01*
X015434Y001644D01*
X015386Y001710D01*
X014989Y001710D02*
X014989Y001710D01*
X014989Y001471D02*
X014989Y001471D01*
X014592Y001710D02*
X014544Y001644D01*
X014507Y001571D01*
X014482Y001493D01*
X014487Y001233D02*
X011594Y001233D01*
X011447Y000994D02*
X014631Y000994D01*
X011515Y003141D02*
X026919Y003141D01*
X026919Y002903D02*
X026183Y002903D01*
X026159Y002915D02*
X026240Y002874D01*
X026313Y002821D01*
X026377Y002757D01*
X026430Y002684D01*
X026471Y002603D01*
X026499Y002517D01*
X026513Y002428D01*
X026513Y002383D01*
X025939Y002383D01*
X025939Y002383D01*
X025939Y002957D01*
X025984Y002957D01*
X026074Y002943D01*
X026159Y002915D01*
X025939Y002903D02*
X025939Y002903D01*
X025939Y002664D02*
X025939Y002664D01*
X025939Y002426D02*
X025939Y002426D01*
X025939Y002383D02*
X025939Y002382D01*
X025939Y002383D01*
X025939Y002187D02*
X025939Y002187D01*
X025939Y001949D02*
X025939Y001949D01*
X026317Y001949D02*
X026919Y001949D01*
X026919Y002187D02*
X026479Y002187D01*
X026513Y002426D02*
X026919Y002426D01*
X026919Y002664D02*
X026440Y002664D01*
X026264Y003274D02*
X026053Y003186D01*
X025825Y003186D01*
X025614Y003274D01*
X025452Y003435D01*
X025365Y003646D01*
X025365Y003875D01*
X025452Y004086D01*
X025469Y004103D01*
X025469Y005177D01*
X025065Y005581D01*
X024944Y005631D01*
X024798Y005777D01*
X024748Y005898D01*
X022144Y008501D01*
X016246Y008501D01*
X016073Y008573D01*
X015941Y008705D01*
X015869Y008878D01*
X015869Y009065D01*
X015941Y009238D01*
X016073Y009370D01*
X016246Y009441D01*
X022246Y009441D01*
X022433Y009441D01*
X022605Y009370D01*
X025413Y006562D01*
X025534Y006512D01*
X025680Y006366D01*
X025730Y006245D01*
X026337Y005638D01*
X026409Y005465D01*
X026409Y005278D01*
X026409Y004103D01*
X026426Y004086D01*
X026513Y003875D01*
X026513Y003646D01*
X026426Y003435D01*
X026264Y003274D01*
X026371Y003380D02*
X026919Y003380D01*
X026919Y003618D02*
X026502Y003618D01*
X026513Y003857D02*
X026919Y003857D01*
X026919Y004095D02*
X026416Y004095D01*
X026409Y004334D02*
X026919Y004334D01*
X026919Y004573D02*
X026409Y004573D01*
X026409Y004811D02*
X026919Y004811D01*
X026919Y005050D02*
X026409Y005050D01*
X026409Y005288D02*
X026919Y005288D01*
X026919Y005527D02*
X026383Y005527D01*
X026210Y005765D02*
X026919Y005765D01*
X026919Y006004D02*
X025971Y006004D01*
X025733Y006242D02*
X026919Y006242D01*
X026919Y006481D02*
X025565Y006481D01*
X025256Y006719D02*
X026919Y006719D01*
X026919Y006958D02*
X025017Y006958D01*
X024779Y007197D02*
X026919Y007197D01*
X026919Y007435D02*
X024540Y007435D01*
X024302Y007674D02*
X024902Y007674D01*
X025024Y007551D02*
X024719Y007856D01*
X024719Y008071D01*
X025239Y008071D01*
X025239Y007551D01*
X025454Y007551D01*
X025759Y007856D01*
X025759Y008071D01*
X025239Y008071D01*
X025239Y008071D01*
X025239Y007551D01*
X025024Y007551D01*
X025239Y007674D02*
X025239Y007674D01*
X025239Y007912D02*
X025239Y007912D01*
X025239Y008071D02*
X025239Y008072D01*
X025239Y008591D01*
X025024Y008591D01*
X024719Y008287D01*
X024719Y008072D01*
X025239Y008072D01*
X025239Y008072D01*
X025239Y008591D01*
X025454Y008591D01*
X025759Y008287D01*
X025759Y008072D01*
X025239Y008072D01*
X025239Y008071D01*
X025239Y008151D02*
X025239Y008151D01*
X025239Y008389D02*
X025239Y008389D01*
X024821Y008389D02*
X023586Y008389D01*
X023824Y008151D02*
X024719Y008151D01*
X024719Y007912D02*
X024063Y007912D01*
X023449Y007197D02*
X006898Y007197D01*
X007065Y007435D02*
X023211Y007435D01*
X022972Y007674D02*
X007037Y007674D01*
X007111Y007912D02*
X022734Y007912D01*
X022495Y008151D02*
X008156Y008151D01*
X007622Y008151D02*
X007506Y008151D01*
X007212Y008866D02*
X007069Y008866D01*
X007119Y009105D02*
X006993Y009105D01*
X007119Y009343D02*
X004189Y009343D01*
X004399Y009582D02*
X007119Y009582D01*
X007119Y009821D02*
X004523Y009821D01*
X004586Y010059D02*
X007119Y010059D01*
X006876Y010298D02*
X004589Y010298D01*
X004545Y010536D02*
X005691Y010536D01*
X006187Y010536D02*
X006809Y010536D01*
X006905Y010775D02*
X006396Y010775D01*
X006436Y011013D02*
X006746Y011013D01*
X006657Y011050D02*
X006840Y010974D01*
X007038Y010974D01*
X007221Y011050D01*
X007361Y011190D01*
X007436Y011373D01*
X007436Y011570D01*
X007361Y011753D01*
X007221Y011893D01*
X007038Y011969D01*
X006840Y011969D01*
X006657Y011893D01*
X006518Y011753D01*
X006442Y011570D01*
X006442Y011373D01*
X006518Y011190D01*
X006657Y011050D01*
X006492Y011252D02*
X006361Y011252D01*
X006442Y011490D02*
X006077Y011490D01*
X005801Y011490D02*
X005052Y011490D01*
X005291Y011252D02*
X005517Y011252D01*
X005501Y011729D02*
X004813Y011729D01*
X004575Y011967D02*
X005442Y011967D01*
X006377Y011729D02*
X006508Y011729D01*
X006436Y011967D02*
X006837Y011967D01*
X007041Y011967D02*
X007269Y011967D01*
X007371Y011729D02*
X007400Y011729D01*
X007436Y011490D02*
X007625Y011490D01*
X007626Y011252D02*
X007386Y011252D01*
X007132Y011013D02*
X007762Y011013D01*
X007807Y010775D02*
X007473Y010775D01*
X007569Y010536D02*
X007644Y010536D01*
X008287Y009870D02*
X008434Y009931D01*
X008580Y010077D01*
X008590Y010101D01*
X008727Y010101D01*
X009709Y009120D01*
X009709Y009046D01*
X009767Y008906D01*
X009832Y008841D01*
X008093Y008841D01*
X008001Y008841D01*
X007959Y008883D01*
X008017Y008864D01*
X008098Y008851D01*
X008139Y008851D01*
X008180Y008851D01*
X008261Y008864D01*
X008339Y008890D01*
X008412Y008927D01*
X008478Y008975D01*
X008536Y009033D01*
X008584Y009099D01*
X008621Y009172D01*
X008646Y009250D01*
X008659Y009331D01*
X008659Y009371D01*
X008139Y009371D01*
X008139Y008851D01*
X008139Y009371D01*
X008139Y009371D01*
X008139Y009372D01*
X008659Y009372D01*
X008659Y009412D01*
X008646Y009493D01*
X008621Y009571D01*
X008584Y009644D01*
X008536Y009710D01*
X008478Y009768D01*
X008412Y009816D01*
X008339Y009853D01*
X008287Y009870D01*
X008403Y009821D02*
X009008Y009821D01*
X008770Y010059D02*
X008562Y010059D01*
X008615Y009582D02*
X009247Y009582D01*
X009485Y009343D02*
X008659Y009343D01*
X008587Y009105D02*
X009709Y009105D01*
X009807Y008866D02*
X008267Y008866D01*
X008139Y008866D02*
X008139Y008866D01*
X008011Y008866D02*
X007976Y008866D01*
X008139Y009105D02*
X008139Y009105D01*
X008139Y009343D02*
X008139Y009343D01*
X009295Y010298D02*
X010849Y010298D01*
X010849Y010536D02*
X009491Y010536D01*
X009619Y010775D02*
X010849Y010775D01*
X010849Y011013D02*
X009613Y011013D01*
X009851Y011252D02*
X010849Y011252D01*
X010849Y011490D02*
X010077Y011490D01*
X010109Y011729D02*
X010849Y011729D01*
X010849Y011967D02*
X010109Y011967D01*
X010109Y012206D02*
X010849Y012206D01*
X010849Y012444D02*
X010109Y012444D01*
X010109Y012683D02*
X010849Y012683D01*
X010849Y012922D02*
X010109Y012922D01*
X010109Y013160D02*
X010849Y013160D01*
X010849Y013399D02*
X010109Y013399D01*
X010109Y013637D02*
X010849Y013637D01*
X010849Y013876D02*
X010109Y013876D01*
X010109Y014114D02*
X010801Y014114D01*
X010751Y014353D02*
X010242Y014353D01*
X010496Y014591D02*
X010840Y014591D01*
X010505Y014830D02*
X012950Y014830D01*
X012901Y014879D02*
X013327Y014453D01*
X013367Y014356D01*
X013474Y014249D01*
X013613Y014191D01*
X013678Y014191D01*
X013448Y013961D01*
X013111Y013961D01*
X013015Y014001D01*
X012863Y014001D01*
X012724Y013944D01*
X012617Y013837D01*
X012559Y013697D01*
X012559Y013546D01*
X012617Y013406D01*
X012724Y013299D01*
X012863Y013241D01*
X013015Y013241D01*
X013111Y013281D01*
X013521Y013281D01*
X013657Y013281D01*
X013782Y013333D01*
X014382Y013933D01*
X014477Y014029D01*
X014529Y014154D01*
X014529Y014731D01*
X014530Y014731D01*
X016339Y014731D01*
X016269Y014469D01*
X016269Y014174D01*
X016345Y013889D01*
X016493Y013634D01*
X016701Y013425D01*
X016957Y013278D01*
X017242Y013201D01*
X017536Y013201D01*
X017821Y013278D01*
X018077Y013425D01*
X018285Y013634D01*
X018433Y013889D01*
X018509Y014174D01*
X018509Y014469D01*
X018433Y014754D01*
X018399Y014811D01*
X018471Y014781D01*
X023648Y014781D01*
X023677Y014753D01*
X023717Y014656D01*
X023824Y014549D01*
X023963Y014491D01*
X024115Y014491D01*
X024254Y014549D01*
X024361Y014656D01*
X024419Y014796D01*
X024419Y014947D01*
X024361Y015087D01*
X024254Y015194D01*
X024158Y015234D01*
X024077Y015314D01*
X023982Y015410D01*
X023857Y015461D01*
X018680Y015461D01*
X018182Y015960D01*
X018057Y016011D01*
X017921Y016011D01*
X016921Y016011D01*
X016796Y015960D01*
X016701Y015864D01*
X016248Y015411D01*
X014321Y015411D01*
X014196Y015360D01*
X014101Y015264D01*
X013901Y015064D01*
X013849Y014939D01*
X013849Y014916D01*
X013808Y014934D01*
X013529Y015212D01*
X013529Y016449D01*
X013569Y016546D01*
X013569Y016697D01*
X013511Y016837D01*
X013404Y016944D01*
X013265Y017001D01*
X013113Y017001D01*
X012974Y016944D01*
X012867Y016837D01*
X012809Y016697D01*
X012809Y016546D01*
X012849Y016449D01*
X012849Y015139D01*
X012849Y015004D01*
X012901Y014879D01*
X012849Y015068D02*
X010294Y015068D01*
X009984Y015068D02*
X008974Y015068D01*
X009212Y014830D02*
X009773Y014830D01*
X009627Y014591D02*
X009402Y014591D01*
X009409Y014353D02*
X009569Y014353D01*
X009569Y014114D02*
X009409Y014114D01*
X009409Y013876D02*
X009569Y013876D01*
X009569Y013637D02*
X009409Y013637D01*
X009409Y013399D02*
X009569Y013399D01*
X009569Y013160D02*
X009409Y013160D01*
X009409Y012922D02*
X009569Y012922D01*
X009569Y012683D02*
X009409Y012683D01*
X009409Y012444D02*
X009569Y012444D01*
X009569Y012206D02*
X009409Y012206D01*
X009409Y011967D02*
X009569Y011967D01*
X009565Y011729D02*
X009409Y011729D01*
X009533Y010059D02*
X010849Y010059D01*
X010849Y009821D02*
X009772Y009821D01*
X010010Y009582D02*
X010948Y009582D01*
X011186Y009343D02*
X010404Y009343D01*
X010469Y009105D02*
X011425Y009105D01*
X011609Y008866D02*
X010371Y008866D01*
X011189Y009821D02*
X012039Y008971D01*
X012458Y009105D02*
X013891Y009105D01*
X013715Y009391D02*
X013854Y009449D01*
X013961Y009556D01*
X014019Y009696D01*
X014019Y009847D01*
X013961Y009987D01*
X013854Y010094D01*
X013758Y010134D01*
X013229Y010662D01*
X013229Y011749D01*
X013269Y011846D01*
X013269Y011997D01*
X013211Y012137D01*
X013104Y012244D01*
X012965Y012301D01*
X012813Y012301D01*
X012674Y012244D01*
X012567Y012137D01*
X012509Y011997D01*
X012509Y011846D01*
X012549Y011749D01*
X012549Y010589D01*
X012549Y010454D01*
X012601Y010329D01*
X013277Y009653D01*
X013317Y009556D01*
X013424Y009449D01*
X013563Y009391D01*
X013715Y009391D01*
X013972Y009582D02*
X014368Y009582D01*
X014606Y009821D02*
X014019Y009821D01*
X013889Y010059D02*
X014845Y010059D01*
X015083Y010298D02*
X013594Y010298D01*
X013355Y010536D02*
X015322Y010536D01*
X015560Y010775D02*
X013229Y010775D01*
X013229Y011013D02*
X015799Y011013D01*
X016038Y011252D02*
X013229Y011252D01*
X013229Y011490D02*
X016119Y011490D01*
X016119Y011729D02*
X013229Y011729D01*
X013269Y011967D02*
X016119Y011967D01*
X016119Y012206D02*
X013142Y012206D01*
X012889Y011921D02*
X012889Y010521D01*
X013639Y009771D01*
X013306Y009582D02*
X011909Y009582D01*
X011671Y009821D02*
X013109Y009821D01*
X012871Y010059D02*
X011529Y010059D01*
X011529Y010298D02*
X012632Y010298D01*
X012549Y010536D02*
X011529Y010536D01*
X011529Y010775D02*
X012549Y010775D01*
X012549Y011013D02*
X011529Y011013D01*
X011529Y011252D02*
X012549Y011252D01*
X012549Y011490D02*
X011529Y011490D01*
X011529Y011729D02*
X012549Y011729D01*
X012509Y011967D02*
X011529Y011967D01*
X011529Y012206D02*
X012636Y012206D01*
X011529Y012444D02*
X016051Y012444D01*
X016009Y012683D02*
X011529Y012683D01*
X011529Y012922D02*
X016152Y012922D01*
X016626Y012922D02*
X025575Y012922D01*
X025565Y012897D02*
X025565Y012668D01*
X025652Y012457D01*
X025814Y012296D01*
X026025Y012208D01*
X026253Y012208D01*
X026464Y012296D01*
X026626Y012457D01*
X026713Y012668D01*
X026713Y012897D01*
X026626Y013108D01*
X026464Y013269D01*
X026253Y013357D01*
X026025Y013357D01*
X025814Y013269D01*
X025652Y013108D01*
X025565Y012897D01*
X025565Y012683D02*
X016769Y012683D01*
X016727Y012444D02*
X025665Y012444D01*
X025704Y013160D02*
X011529Y013160D01*
X011529Y013399D02*
X012624Y013399D01*
X012559Y013637D02*
X011529Y013637D01*
X011529Y013876D02*
X012656Y013876D01*
X012939Y013621D02*
X013589Y013621D01*
X014189Y014221D01*
X014189Y014871D01*
X014389Y015071D01*
X016389Y015071D01*
X016989Y015671D01*
X017989Y015671D01*
X018539Y015121D01*
X023789Y015121D01*
X024039Y014871D01*
X023782Y014591D02*
X018476Y014591D01*
X018509Y014353D02*
X025597Y014353D01*
X025565Y014275D02*
X025652Y014486D01*
X025814Y014647D01*
X026025Y014735D01*
X026253Y014735D01*
X026464Y014647D01*
X026626Y014486D01*
X026713Y014275D01*
X026713Y014046D01*
X026626Y013835D01*
X026464Y013674D01*
X026253Y013586D01*
X026025Y013586D01*
X025814Y013674D01*
X025652Y013835D01*
X025565Y014046D01*
X025565Y014275D01*
X025565Y014114D02*
X018493Y014114D01*
X018425Y013876D02*
X025635Y013876D01*
X025901Y013637D02*
X018287Y013637D01*
X018031Y013399D02*
X026919Y013399D01*
X026919Y013637D02*
X026377Y013637D01*
X026643Y013876D02*
X026919Y013876D01*
X026919Y014114D02*
X026713Y014114D01*
X026681Y014353D02*
X026919Y014353D01*
X026919Y014591D02*
X026520Y014591D01*
X026919Y014830D02*
X024419Y014830D01*
X024369Y015068D02*
X026919Y015068D01*
X026919Y015307D02*
X024084Y015307D01*
X024077Y015314D02*
X024077Y015314D01*
X024296Y014591D02*
X025758Y014591D01*
X026919Y015546D02*
X018596Y015546D01*
X018357Y015784D02*
X026919Y015784D01*
X026919Y016023D02*
X013529Y016023D01*
X013529Y016261D02*
X025897Y016261D01*
X025814Y016296D02*
X026025Y016208D01*
X026253Y016208D01*
X026464Y016296D01*
X026626Y016457D01*
X026713Y016668D01*
X026713Y016897D01*
X026626Y017108D01*
X026464Y017269D01*
X026253Y017357D01*
X026025Y017357D01*
X025814Y017269D01*
X025652Y017108D01*
X025565Y016897D01*
X025565Y016668D01*
X025652Y016457D01*
X025814Y016296D01*
X025635Y016500D02*
X013550Y016500D01*
X013552Y016738D02*
X025565Y016738D01*
X025598Y016977D02*
X013324Y016977D01*
X013054Y016977D02*
X009076Y016977D01*
X008838Y016738D02*
X012826Y016738D01*
X012828Y016500D02*
X008599Y016500D01*
X008361Y016261D02*
X012849Y016261D01*
X012849Y016023D02*
X008122Y016023D01*
X007916Y015784D02*
X007883Y015784D01*
X007859Y015546D02*
X007809Y015546D01*
X007809Y015307D02*
X007966Y015307D01*
X007809Y015068D02*
X008210Y015068D01*
X008391Y014830D02*
X008449Y014830D01*
X008611Y014591D02*
X008687Y014591D01*
X008659Y014353D02*
X008869Y014353D01*
X008735Y015307D02*
X012849Y015307D01*
X012849Y015546D02*
X008619Y015546D01*
X008562Y015784D02*
X012849Y015784D01*
X013529Y015784D02*
X016621Y015784D01*
X016382Y015546D02*
X013529Y015546D01*
X013529Y015307D02*
X014144Y015307D01*
X013905Y015068D02*
X013673Y015068D01*
X013189Y015071D02*
X013689Y014571D01*
X013370Y014353D02*
X011627Y014353D01*
X011577Y014114D02*
X013601Y014114D01*
X013188Y014591D02*
X011538Y014591D01*
X011189Y014321D02*
X011189Y009821D01*
X012285Y009343D02*
X014129Y009343D01*
X014654Y009105D02*
X015886Y009105D01*
X015874Y008866D02*
X014416Y008866D01*
X014177Y008628D02*
X016018Y008628D01*
X016046Y009343D02*
X014893Y009343D01*
X015131Y009582D02*
X025186Y009582D01*
X025074Y009821D02*
X015370Y009821D01*
X015608Y010059D02*
X025019Y010059D01*
X025019Y010298D02*
X015847Y010298D01*
X016086Y010536D02*
X025077Y010536D01*
X025194Y010775D02*
X016324Y010775D01*
X016563Y011013D02*
X025397Y011013D01*
X025844Y011252D02*
X016659Y011252D01*
X016659Y011490D02*
X026919Y011490D01*
X026919Y011252D02*
X026435Y011252D01*
X026881Y011013D02*
X026919Y011013D01*
X026919Y011729D02*
X016659Y011729D01*
X016659Y011967D02*
X026919Y011967D01*
X026919Y012206D02*
X016659Y012206D01*
X016747Y013399D02*
X013847Y013399D01*
X014086Y013637D02*
X016491Y013637D01*
X016353Y013876D02*
X014324Y013876D01*
X014513Y014114D02*
X016285Y014114D01*
X016269Y014353D02*
X014529Y014353D01*
X014529Y014591D02*
X016302Y014591D01*
X013189Y015071D02*
X013189Y016621D01*
X013621Y017931D02*
X025612Y017931D01*
X025652Y017835D02*
X025814Y017674D01*
X026025Y017586D01*
X026253Y017586D01*
X026464Y017674D01*
X026626Y017835D01*
X026713Y018046D01*
X026713Y018275D01*
X026626Y018486D01*
X026464Y018647D01*
X026253Y018735D01*
X026025Y018735D01*
X025814Y018647D01*
X025652Y018486D01*
X025565Y018275D01*
X025565Y018046D01*
X025652Y017835D01*
X025795Y017692D02*
X009792Y017692D01*
X009553Y017454D02*
X026919Y017454D01*
X026919Y017692D02*
X026483Y017692D01*
X026666Y017931D02*
X026919Y017931D01*
X026919Y018170D02*
X026713Y018170D01*
X026658Y018408D02*
X026919Y018408D01*
X026919Y018647D02*
X026465Y018647D01*
X026919Y018885D02*
X007228Y018885D01*
X007294Y019124D02*
X026919Y019124D01*
X026919Y019362D02*
X012304Y019362D01*
X012545Y019601D02*
X026919Y019601D01*
X026919Y019839D02*
X012683Y019839D01*
X012747Y020078D02*
X023658Y020078D01*
X023989Y020271D02*
X023639Y020621D01*
X013539Y020621D01*
X013199Y020794D02*
X012631Y020794D01*
X012723Y020555D02*
X013159Y020555D01*
X013307Y020316D02*
X012759Y020316D01*
X010974Y019362D02*
X007432Y019362D01*
X007424Y019601D02*
X010733Y019601D01*
X010595Y019839D02*
X007274Y019839D01*
X006604Y019839D02*
X004527Y019839D01*
X004589Y020078D02*
X010531Y020078D01*
X010519Y020316D02*
X004589Y020316D01*
X004541Y020555D02*
X010556Y020555D01*
X010647Y020794D02*
X004438Y020794D01*
X004407Y019601D02*
X006454Y019601D01*
X006446Y019362D02*
X006251Y019362D01*
X005627Y019362D02*
X004204Y019362D01*
X003778Y019124D02*
X005464Y019124D01*
X005442Y018885D02*
X002959Y018885D01*
X002959Y018647D02*
X005561Y018647D01*
X005694Y018408D02*
X002959Y018408D01*
X002959Y018170D02*
X005483Y018170D01*
X005442Y017931D02*
X002959Y017931D01*
X002959Y017692D02*
X005516Y017692D01*
X005805Y017454D02*
X002959Y017454D01*
X004014Y017215D02*
X005502Y017215D01*
X005442Y016977D02*
X004308Y016977D01*
X004467Y016738D02*
X005497Y016738D01*
X005779Y016500D02*
X004554Y016500D01*
X004589Y016261D02*
X006297Y016261D01*
X006099Y016500D02*
X006535Y016500D01*
X006619Y016738D02*
X006381Y016738D01*
X006436Y016977D02*
X006619Y016977D01*
X006507Y017215D02*
X006415Y017215D01*
X007159Y016977D02*
X008313Y016977D01*
X008551Y017215D02*
X007371Y017215D01*
X007436Y017454D02*
X008790Y017454D01*
X009028Y017692D02*
X007386Y017692D01*
X007129Y017931D02*
X009267Y017931D01*
X009505Y018170D02*
X007340Y018170D01*
X007436Y018408D02*
X013038Y018408D01*
X013540Y018408D02*
X025620Y018408D01*
X025565Y018170D02*
X013669Y018170D01*
X009315Y017215D02*
X025760Y017215D01*
X026518Y017215D02*
X026919Y017215D01*
X026919Y016977D02*
X026680Y016977D01*
X026713Y016738D02*
X026919Y016738D01*
X026919Y016500D02*
X026644Y016500D01*
X026381Y016261D02*
X026919Y016261D01*
X025813Y018647D02*
X007405Y018647D01*
X006219Y018408D02*
X006184Y018408D01*
X007159Y016738D02*
X008074Y016738D01*
X007835Y016500D02*
X007159Y016500D01*
X007061Y016261D02*
X007597Y016261D01*
X007358Y016023D02*
X006822Y016023D01*
X006583Y015784D02*
X007269Y015784D01*
X007269Y015546D02*
X006345Y015546D01*
X006209Y015307D02*
X007269Y015307D01*
X007269Y015068D02*
X006209Y015068D01*
X006209Y014830D02*
X007269Y014830D01*
X007269Y014591D02*
X006209Y014591D01*
X006209Y014353D02*
X007269Y014353D01*
X007269Y014114D02*
X006209Y014114D01*
X006209Y013876D02*
X006640Y013876D01*
X006470Y013637D02*
X006209Y013637D01*
X006209Y013399D02*
X006442Y013399D01*
X006399Y013160D02*
X006547Y013160D01*
X006436Y012922D02*
X006727Y012922D01*
X007152Y012922D02*
X007269Y012922D01*
X007238Y013876D02*
X007269Y013876D01*
X007809Y014830D02*
X007887Y014830D01*
X006058Y016023D02*
X004577Y016023D01*
X004513Y015784D02*
X005820Y015784D01*
X005669Y015546D02*
X004378Y015546D01*
X004153Y015307D02*
X005669Y015307D01*
X005669Y015068D02*
X004220Y015068D01*
X004417Y014830D02*
X005669Y014830D01*
X005669Y014591D02*
X004531Y014591D01*
X004589Y014353D02*
X005669Y014353D01*
X005294Y014114D02*
X004589Y014114D01*
X004536Y013876D02*
X005159Y013876D01*
X004973Y013637D02*
X004428Y013637D01*
X004240Y013399D02*
X004734Y013399D01*
X004496Y013160D02*
X003897Y013160D01*
X004257Y012922D02*
X002959Y012922D01*
X002959Y013160D02*
X002981Y013160D01*
X002959Y012683D02*
X004019Y012683D01*
X003869Y012444D02*
X002959Y012444D01*
X002959Y012206D02*
X003869Y012206D01*
X003869Y011967D02*
X002959Y011967D01*
X002959Y011729D02*
X004050Y011729D01*
X003986Y011793D02*
X003986Y011793D01*
X004288Y011490D02*
X002959Y011490D01*
X003951Y011252D02*
X004527Y011252D01*
X004766Y011013D02*
X004272Y011013D01*
X004446Y010775D02*
X005004Y010775D01*
X004559Y012444D02*
X004544Y012444D01*
X003722Y009105D02*
X006385Y009105D01*
X006302Y008866D02*
X002959Y008866D01*
X002959Y008628D02*
X006064Y008628D01*
X005825Y008389D02*
X002959Y008389D01*
X002959Y008151D02*
X005586Y008151D01*
X005348Y007912D02*
X002959Y007912D01*
X002959Y007674D02*
X003896Y007674D01*
X004182Y007674D02*
X005109Y007674D01*
X004694Y006958D02*
X004154Y006958D01*
X003924Y006958D02*
X002959Y006958D01*
X002959Y006719D02*
X004455Y006719D01*
X004217Y006481D02*
X002959Y006481D01*
X002959Y006242D02*
X003978Y006242D01*
X003740Y006004D02*
X002959Y006004D01*
X002959Y005765D02*
X003445Y005765D01*
X003359Y005527D02*
X002959Y005527D01*
X002959Y005288D02*
X003435Y005288D01*
X003660Y005050D02*
X002959Y005050D01*
X002959Y004811D02*
X003694Y004811D01*
X004384Y004811D02*
X004418Y004811D01*
X004453Y004573D02*
X002959Y004573D01*
X002959Y004334D02*
X004359Y004334D01*
X004131Y004095D02*
X002959Y004095D01*
X002959Y003857D02*
X003039Y003857D01*
X003739Y003857D02*
X003893Y003857D01*
X005804Y005288D02*
X008512Y005288D01*
X008542Y005527D02*
X005566Y005527D01*
X005441Y005765D02*
X024810Y005765D01*
X024642Y006004D02*
X004803Y006004D01*
X004737Y005765D02*
X004565Y005765D01*
X005042Y006242D02*
X024403Y006242D01*
X024165Y006481D02*
X005280Y006481D01*
X005519Y006719D02*
X023926Y006719D01*
X023688Y006958D02*
X005757Y006958D01*
X005996Y007197D02*
X006481Y007197D01*
X009236Y005527D02*
X025119Y005527D01*
X025358Y005288D02*
X009368Y005288D01*
X009607Y005050D02*
X025469Y005050D01*
X025469Y004811D02*
X009845Y004811D01*
X010084Y004573D02*
X025469Y004573D01*
X025469Y004334D02*
X010322Y004334D01*
X010561Y004095D02*
X025462Y004095D01*
X025365Y003857D02*
X010800Y003857D01*
X011038Y003618D02*
X025376Y003618D01*
X025507Y003380D02*
X011277Y003380D01*
X010723Y003141D02*
X009976Y003141D01*
X010019Y003380D02*
X010485Y003380D01*
X010246Y003618D02*
X010208Y003618D01*
X009302Y003141D02*
X009046Y003141D01*
X009169Y003380D02*
X009199Y003380D01*
X008578Y002664D02*
X010594Y002664D01*
X010127Y002101D02*
X010623Y001606D01*
X010589Y001523D01*
X010530Y001666D01*
X010384Y001812D01*
X010192Y001891D01*
X009986Y001891D01*
X009794Y001812D01*
X009648Y001666D01*
X009588Y001520D01*
X009571Y001571D01*
X009534Y001644D01*
X009486Y001710D01*
X009692Y001710D01*
X009486Y001710D02*
X009428Y001768D01*
X009362Y001816D01*
X009289Y001853D01*
X009211Y001879D01*
X009130Y001891D01*
X009089Y001891D01*
X009048Y001891D01*
X008967Y001879D01*
X008889Y001853D01*
X008816Y001816D01*
X008750Y001768D01*
X008692Y001710D01*
X008609Y001710D01*
X008609Y001763D02*
X008480Y001891D01*
X007869Y001891D01*
X007869Y001947D01*
X007811Y002087D01*
X007704Y002194D01*
X007565Y002251D01*
X007509Y002251D01*
X007509Y002587D01*
X007204Y002891D01*
X007101Y002891D01*
X006568Y003424D01*
X007232Y003141D02*
X007267Y003056D01*
X007374Y002949D01*
X007513Y002891D01*
X007587Y002891D01*
X008336Y002143D01*
X008435Y002101D01*
X008543Y002101D01*
X010127Y002101D01*
X010280Y001949D02*
X007868Y001949D01*
X007711Y002187D02*
X008292Y002187D01*
X008053Y002426D02*
X007509Y002426D01*
X007432Y002664D02*
X007814Y002664D01*
X007486Y002903D02*
X007090Y002903D01*
X008609Y001763D02*
X008609Y001575D01*
X008644Y001644D01*
X008692Y001710D01*
X009089Y001710D02*
X009089Y001710D01*
X009089Y001891D02*
X009089Y001372D01*
X009089Y001372D01*
X009089Y001891D01*
X009089Y001471D02*
X009089Y001471D01*
X010486Y001710D02*
X010519Y001710D01*
X011044Y001949D02*
X025561Y001949D01*
X025577Y007674D02*
X026919Y007674D01*
X026919Y007912D02*
X025759Y007912D01*
X025759Y008151D02*
X026919Y008151D01*
X026919Y008389D02*
X025657Y008389D01*
X025792Y009105D02*
X022870Y009105D01*
X022632Y009343D02*
X025383Y009343D01*
X026486Y009105D02*
X026919Y009105D01*
X026919Y009343D02*
X026895Y009343D01*
X026919Y008866D02*
X023109Y008866D01*
X023347Y008628D02*
X026919Y008628D01*
X026919Y012444D02*
X026613Y012444D01*
X026713Y012683D02*
X026919Y012683D01*
X026919Y012922D02*
X026703Y012922D01*
X026574Y013160D02*
X026919Y013160D01*
X022257Y008389D02*
X013939Y008389D01*
X013652Y008866D02*
X012469Y008866D01*
X003675Y007435D02*
X002959Y007435D01*
X002959Y007197D02*
X003679Y007197D01*
X003156Y009105D02*
X002959Y009105D01*
X002959Y019124D02*
X003100Y019124D01*
X023948Y020794D02*
X026919Y020794D01*
X026919Y020555D02*
X024243Y020555D01*
X024369Y020316D02*
X026919Y020316D01*
X026919Y020078D02*
X024320Y020078D01*
D16*
X023989Y020271D03*
X025539Y020871D03*
X026739Y020771D03*
X026739Y020271D03*
X026739Y019771D03*
X026089Y019521D03*
X024839Y016771D03*
X024439Y016771D03*
X024039Y016071D03*
X024039Y015671D03*
X024039Y014871D03*
X025639Y015721D03*
X025639Y016071D03*
X016589Y010221D03*
X016189Y010221D03*
X016189Y009771D03*
X014139Y010771D03*
X013739Y010771D03*
X013639Y009771D03*
X014239Y008271D03*
X014239Y007871D03*
X013839Y007871D03*
X013689Y007271D03*
X014139Y007271D03*
X014589Y007271D03*
X015139Y006671D03*
X015139Y006271D03*
X013039Y006271D03*
X013039Y006671D03*
X010789Y007371D03*
X008939Y005921D03*
X008889Y005371D03*
X007639Y005571D03*
X007639Y005971D03*
X005989Y005721D03*
X005089Y005621D03*
X004639Y005321D03*
X005139Y004971D03*
X004739Y004321D03*
X004039Y004971D03*
X003739Y005521D03*
X005689Y004071D03*
X006239Y003871D03*
X006639Y003871D03*
X007189Y003521D03*
X007589Y003271D03*
X008439Y003021D03*
X008789Y003421D03*
X009639Y003321D03*
X009839Y003721D03*
X010339Y003071D03*
X010889Y002421D03*
X010639Y004821D03*
X010639Y005771D03*
X007889Y008421D03*
X007189Y008371D03*
X006689Y008871D03*
X005989Y009321D03*
X005589Y009321D03*
X007189Y010521D03*
X008789Y011971D03*
X009239Y010821D03*
X010339Y011771D03*
X012889Y011921D03*
X012939Y013621D03*
X013689Y014571D03*
X013939Y015471D03*
X013939Y015871D03*
X013189Y016621D03*
X013289Y018121D03*
X014439Y018621D03*
X014139Y019071D03*
X014139Y019571D03*
X014139Y020071D03*
X013539Y020621D03*
X015239Y018171D03*
X015039Y015771D03*
X015439Y015771D03*
X015839Y015771D03*
X015439Y014371D03*
X014689Y014471D03*
X014689Y013971D03*
X016389Y012621D03*
X011039Y008971D03*
X010589Y008971D03*
X010089Y009121D03*
X006689Y007521D03*
X004039Y007321D03*
X003739Y007771D03*
X003139Y007171D03*
X004639Y003121D03*
X007489Y001871D03*
X008139Y002171D03*
X015239Y002671D03*
X004939Y012421D03*
X005539Y013821D03*
X008239Y015571D03*
X010139Y014721D03*
X010439Y015771D03*
X010439Y016171D03*
X010439Y016521D03*
X008039Y017121D03*
X009539Y020571D03*
X009939Y020571D03*
D17*
X011189Y014321D03*
X012039Y008971D03*
X016339Y008971D03*
D18*
X022339Y008971D01*
X025239Y006071D01*
X025939Y005371D01*
X025939Y003760D01*
D19*
X016389Y011221D02*
X013739Y008571D01*
X008039Y008571D01*
X007889Y008571D01*
X007389Y009071D01*
X007389Y010321D01*
X007189Y010521D01*
X008139Y010371D02*
X008839Y010371D01*
X010089Y009121D01*
X009239Y010821D02*
X009239Y011021D01*
X009839Y011621D01*
X009839Y014421D01*
X010139Y014721D01*
X009139Y014521D02*
X009139Y011371D01*
X008139Y010371D01*
X008139Y011371D02*
X007539Y011971D01*
X007539Y015821D01*
X009839Y018121D01*
X013289Y018121D01*
X009139Y014521D02*
X008239Y015421D01*
X008239Y015571D01*
X008239Y014371D02*
X008139Y014371D01*
X008239Y014371D02*
X008789Y013821D01*
X008789Y011971D01*
X006939Y012471D02*
X006889Y012421D01*
X004939Y012421D01*
X004139Y012421D02*
X004139Y012021D01*
X005189Y010971D01*
X005939Y010971D01*
X004139Y012421D02*
X005539Y013821D01*
X005939Y012971D02*
X005939Y015521D01*
X006889Y016471D01*
X006889Y017421D01*
X006939Y017471D01*
X006489Y017671D02*
X006489Y019021D01*
X006939Y019471D01*
X006489Y017671D02*
X005939Y017121D01*
X005939Y016971D01*
X006689Y008871D02*
X005139Y007321D01*
X004039Y007321D01*
X004089Y005671D02*
X004089Y005021D01*
X004039Y004971D01*
X004639Y004971D02*
X004639Y005321D01*
X004639Y004971D02*
X005039Y004571D01*
X007639Y004571D01*
X008789Y003421D01*
X008439Y003021D02*
X008389Y003021D01*
X007739Y003671D01*
X007339Y003671D01*
X007189Y003521D01*
X007589Y003271D02*
X008489Y002371D01*
X010239Y002371D01*
X011089Y001521D01*
X011089Y001371D01*
X010939Y002371D02*
X010889Y002421D01*
X010939Y002371D02*
X011289Y002371D01*
X011589Y002671D01*
X009839Y003721D02*
X009789Y003721D01*
X008539Y004971D01*
X005739Y004971D01*
X005089Y005621D01*
X005139Y004971D02*
X005339Y004771D01*
X008439Y004771D01*
X009139Y004071D01*
X009139Y003821D01*
X009639Y003321D01*
X007489Y001871D02*
X005489Y001871D01*
X004989Y002371D01*
X004639Y003121D02*
X004789Y003271D01*
X006339Y003271D01*
X006989Y002621D01*
X006989Y002371D01*
X005689Y004071D02*
X004989Y004071D01*
X003389Y002471D01*
X003389Y003471D02*
X003889Y003471D01*
X004739Y004321D01*
X003739Y005521D02*
X003739Y005621D01*
X006039Y007921D01*
X006739Y007921D01*
X007189Y008371D01*
X007889Y008421D02*
X008039Y008571D01*
X006689Y007521D02*
X005939Y007521D01*
X004089Y005671D01*
X016389Y011221D02*
X016389Y012621D01*
D20*
X008889Y005371D02*
X011589Y002671D01*
X015239Y002671D01*
M02*
